<svg width="256px" height="256px" viewBox="-9.36 -9.36 42.72 42.72" fill="none" xmlns="http://www.w3.org/2000/svg" stroke="#ffffff" stroke-width="0.45600000000000007"><g id="SVGRepo_bgCarrier" stroke-width="0" transform="translate(1.08,1.08), scale(0.91)"><rect x="-9.36" y="-9.36" width="42.72" height="42.72" rx="21.36" fill="#000000" strokewidth="0"></rect></g><g id="SVGRepo_tracerCarrier" stroke-linecap="round" stroke-linejoin="round" stroke="#CCCCCC" stroke-width="0.144"></g><g id="SVGRepo_iconCarrier"> <path d="M5.0333 14.8284L6.44751 16.2426L10.6902 12L6.44751 7.75733L5.0333 9.17155L7.86172 12L5.0333 14.8284Z" fill="#000000"></path> <path d="M15 14H11V16H15V14Z" fill="#000000"></path> <path fill-rule="evenodd" clip-rule="evenodd" d="M2 2C0.895431 2 0 2.89543 0 4V20C0 21.1046 0.89543 22 2 22H22C23.1046 22 24 21.1046 24 20V4C24 2.89543 23.1046 2 22 2H2ZM22 4H2L2 20H22V4Z" fill="#000000"></path> </g></svg>